<svg width="109" height="109" viewBox="0 0 109 109" fill="none" xmlns="http://www.w3.org/2000/svg">
<rect x="7" y="7" width="95.2742" height="95.2742" rx="47.6371" fill="#FAF8FF"/>
<rect x="3.66874" y="3.66874" width="101.937" height="101.937" rx="50.9683" stroke="#CCB7FF" stroke-opacity="0.8" stroke-width="6.66253"/>
<g clip-path="url(#clip0_2238_5224)">
<path d="M49.9985 32.5079C49.8648 32.6415 49.7897 32.8228 49.7897 33.0118C49.7897 33.2008 49.8648 33.382 49.9985 33.5157C50.1321 33.6493 50.3134 33.7244 50.5024 33.7244C50.6914 33.7244 50.8726 33.6493 51.0063 33.5157C51.6745 32.8475 52.5808 32.4721 53.5258 32.4721C54.4708 32.4721 55.377 32.8475 56.0453 33.5157C56.1789 33.6493 56.3602 33.7244 56.5492 33.7244C56.7381 33.7244 56.9194 33.6493 57.053 33.5157C57.1867 33.382 57.2618 33.2008 57.2618 33.0118C57.2618 32.8228 57.1867 32.6415 57.053 32.5079C56.1176 31.5724 54.8487 31.0468 53.5258 31.0468C52.2028 31.0468 50.934 31.5724 49.9985 32.5079ZM45.9673 28.4767C45.8336 28.6103 45.7586 28.7916 45.7586 28.9806C45.7586 29.1696 45.8336 29.3508 45.9673 29.4845C46.1009 29.6181 46.2822 29.6932 46.4712 29.6932C46.6602 29.6932 46.8414 29.6181 46.9751 29.4845C48.7124 27.7471 51.0688 26.7711 53.5258 26.7711C55.9827 26.7711 58.3391 27.7471 60.0764 29.4845C60.2101 29.6181 60.3913 29.6932 60.5803 29.6932C60.7693 29.6932 60.9506 29.6181 61.0842 29.4845C61.2179 29.3508 61.293 29.1696 61.293 28.9806C61.293 28.7916 61.2179 28.6103 61.0842 28.4767C59.0796 26.4721 56.3607 25.3459 53.5258 25.3459C50.6908 25.3459 47.9719 26.4721 45.9673 28.4767ZM47.9829 30.4923C47.8492 30.6259 47.7742 30.8072 47.7742 30.9962C47.7742 31.1852 47.8492 31.3664 47.9829 31.5001C48.1165 31.6337 48.2978 31.7088 48.4868 31.7088C48.6758 31.7088 48.857 31.6337 48.9907 31.5001C50.1935 30.2973 51.8248 29.6216 53.5258 29.6216C55.2267 29.6216 56.8581 30.2973 58.0608 31.5001C58.1945 31.6337 58.3757 31.7088 58.5647 31.7088C58.7537 31.7088 58.935 31.6337 59.0686 31.5001C59.2023 31.3664 59.2774 31.1852 59.2774 30.9962C59.2774 30.8072 59.2023 30.6259 59.0686 30.4923C57.5986 29.0222 55.6047 28.1963 53.5258 28.1963C51.4468 28.1963 49.4529 29.0222 47.9829 30.4923Z" fill="#260085"/>
</g>
<g clip-path="url(#clip1_2238_5224)">
<g clip-path="url(#clip2_2238_5224)">
<path d="M56.8206 79.4252V90.2514C56.8206 90.3174 56.7973 90.3834 56.7585 90.4378L55.411 92.1775C55.3528 92.2512 55.2635 92.294 55.1703 92.294H54.5645C54.3975 92.294 54.2577 92.1581 54.2577 91.9872V90.0417C54.2577 89.8748 54.3936 89.735 54.5645 89.735C54.7315 89.735 54.8713 89.5991 54.8713 89.4282V88.838C54.8713 88.671 54.7354 88.5312 54.5645 88.5312H53.2209C53.054 88.5312 52.9142 88.6671 52.9142 88.838V89.4282C52.9142 89.5952 53.0501 89.735 53.2209 89.735C53.3879 89.735 53.5277 89.8709 53.5277 90.0417V91.9872C53.5277 92.1542 53.3918 92.294 53.2209 92.294H52.619C52.522 92.294 52.4327 92.2474 52.3744 92.1697L51.0231 90.3563C50.9842 90.3019 50.9609 90.2398 50.9609 90.1738V79.4174C50.9609 79.2505 51.0968 79.1107 51.2677 79.1107H56.5177C56.6847 79.1107 56.8245 79.2466 56.8245 79.4174L56.8206 79.4252Z" fill="#260085"/>
<path d="M53.8926 81.6546C54.1414 81.6546 54.343 81.4529 54.343 81.2041C54.343 80.9553 54.1414 80.7537 53.8926 80.7537C53.6438 80.7537 53.4421 80.9553 53.4421 81.2041C53.4421 81.4529 53.6438 81.6546 53.8926 81.6546Z" fill="white"/>
<path d="M53.8926 83.1535C54.1414 83.1535 54.343 82.9518 54.343 82.7031C54.343 82.4543 54.1414 82.2526 53.8926 82.2526C53.6438 82.2526 53.4421 82.4543 53.4421 82.7031C53.4421 82.9518 53.6438 83.1535 53.8926 83.1535Z" fill="white"/>
<path d="M53.8926 84.6559C54.1414 84.6559 54.343 84.4542 54.343 84.2054C54.343 83.9567 54.1414 83.755 53.8926 83.755C53.6438 83.755 53.4421 83.9567 53.4421 84.2054C53.4421 84.4542 53.6438 84.6559 53.8926 84.6559Z" fill="white"/>
<path d="M53.8926 86.1585C54.1414 86.1585 54.343 85.9569 54.343 85.7081C54.343 85.4593 54.1414 85.2576 53.8926 85.2576C53.6438 85.2576 53.4421 85.4593 53.4421 85.7081C53.4421 85.9569 53.6438 86.1585 53.8926 86.1585Z" fill="white"/>
<path d="M57.1704 79.9866C57.012 79.9866 56.8607 79.9182 56.7563 79.7921C56.5079 79.4933 56.1406 79.3204 55.7517 79.3204H51.899C51.5102 79.3204 51.1429 79.4933 50.8944 79.7921C50.79 79.9182 50.6352 79.9866 50.4804 79.9866C50.4228 79.9866 50.3615 79.9758 50.3075 79.9578C45.8967 78.4527 42.9334 74.3083 42.9334 69.6418V49.4529C42.9262 43.447 47.8159 38.5573 53.8218 38.5573C56.7311 38.5573 59.4676 39.6915 61.5272 41.751C63.5868 43.8106 64.721 46.5471 64.721 49.4565V69.6454C64.721 74.3083 61.7577 78.4563 57.3468 79.9614C57.2892 79.9794 57.2316 79.9902 57.174 79.9902L57.1704 79.9866Z" fill="white"/>
<path d="M53.822 39.0975C56.6809 39.0975 59.2698 40.257 61.1457 42.1329C63.0181 44.0052 64.1811 46.5977 64.1811 49.4567V69.6456C64.1811 74.1933 61.2465 78.0568 57.1706 79.4502C56.8321 79.0434 56.3208 78.7841 55.7483 78.7841H51.8956C51.3231 78.7841 50.8118 79.0434 50.4733 79.4502C46.3974 78.0604 43.4628 74.1933 43.4628 69.6456V49.4531C43.4664 43.7352 48.1041 39.0975 53.822 39.0975ZM53.822 38.0173C47.5172 38.0173 42.3862 43.1483 42.3862 49.4531V69.642C42.3862 74.5389 45.4972 78.8885 50.1277 80.4692C50.2429 80.5088 50.3581 80.5268 50.4769 80.5268C50.7902 80.5268 51.0999 80.39 51.3087 80.138C51.4563 79.9615 51.6688 79.8607 51.8992 79.8607H55.7519C55.9824 79.8607 56.1948 79.9615 56.3424 80.138C56.5513 80.39 56.8573 80.5268 57.1742 80.5268C57.2894 80.5268 57.4082 80.5088 57.5234 80.4692C62.1539 78.8885 65.2649 74.5389 65.2649 69.642V49.4531C65.2649 46.3997 64.0767 43.5264 61.9163 41.366C59.7487 39.2056 56.8789 38.0173 53.822 38.0173Z" fill="#260085"/>
<path d="M49.6831 62.8272C49.3616 62.8272 49.0504 62.793 48.7494 62.7246C48.4484 62.6562 48.1645 62.5604 47.8977 62.4373C47.6377 62.3142 47.412 62.1671 47.2204 61.9961L47.6719 60.9802C47.9798 61.2196 48.2979 61.4009 48.6262 61.524C48.9614 61.6403 49.3069 61.6985 49.6626 61.6985C50.0936 61.6985 50.4322 61.5925 50.6785 61.3804C50.9247 61.1615 51.0479 60.8605 51.0479 60.4774C51.0479 60.0943 50.9316 59.7899 50.699 59.5641C50.4664 59.3316 50.1483 59.2153 49.7447 59.2153C49.4574 59.2153 49.2009 59.27 48.9751 59.3794C48.7562 59.4889 48.5476 59.6565 48.3492 59.8822H47.4257V55.4904H51.9098V56.6089H48.6775V58.8459H48.462C48.6262 58.627 48.8486 58.4525 49.129 58.3225C49.4095 58.1926 49.7208 58.1276 50.0628 58.1276C50.5211 58.1276 50.9179 58.2233 51.2531 58.4149C51.5951 58.6064 51.8585 58.8766 52.0432 59.2255C52.2279 59.5676 52.3203 59.9678 52.3203 60.4261C52.3203 60.9118 52.2142 61.3359 52.0022 61.6985C51.7901 62.0542 51.4857 62.3313 51.0889 62.5296C50.6922 62.728 50.2236 62.8272 49.6831 62.8272ZM53.3013 62.7246V61.2573H54.82V62.7246H53.3013ZM56.1921 62.7246V61.7395L58.5727 59.2461C58.7848 59.0203 58.9524 58.8117 59.0755 58.6201C59.2055 58.4286 59.2979 58.2473 59.3526 58.0763C59.4142 57.9052 59.4449 57.7308 59.4449 57.5529C59.4449 57.2177 59.3355 56.9612 59.1166 56.7834C58.8977 56.6055 58.5864 56.5166 58.1828 56.5166C57.8681 56.5166 57.5534 56.5781 57.2388 56.7013C56.9309 56.8176 56.6368 57.0023 56.3563 57.2554L55.9048 56.2498C56.199 55.983 56.5615 55.7743 56.9925 55.6238C57.4303 55.4665 57.8818 55.3878 58.347 55.3878C58.86 55.3878 59.2944 55.4699 59.6502 55.6341C60.0127 55.7914 60.2864 56.024 60.4711 56.3319C60.6626 56.6329 60.7584 56.9988 60.7584 57.4298C60.7584 57.6487 60.731 57.8608 60.6763 58.066C60.6284 58.2712 60.5497 58.4765 60.4403 58.6817C60.3377 58.8869 60.2043 59.0956 60.0401 59.3076C59.8827 59.5128 59.6946 59.7317 59.4757 59.9643L57.6697 61.8421V61.6061H61.0354V62.7246H56.1921Z" fill="#AB8AFF"/>
</g>
</g>
<defs>
<clipPath id="clip0_2238_5224">
<rect width="17.1029" height="17.1029" fill="white" transform="translate(41.4324 28.9806) rotate(-45)"/>
</clipPath>
<clipPath id="clip1_2238_5224">
<rect width="54.9709" height="54.9709" fill="white" transform="translate(26.7739 37.6993)"/>
</clipPath>
<clipPath id="clip2_2238_5224">
<rect width="54.9709" height="54.9709" fill="white" transform="translate(26.7739 37.6993)"/>
</clipPath>
</defs>
</svg>
