<svg width="24" height="24" viewBox="0 0 24 24" fill="none" xmlns="http://www.w3.org/2000/svg">
<path d="M16.84 11.63C17.2405 11.635 17.638 11.5596 18.009 11.4085C18.38 11.2574 18.7169 11.0335 19 10.75L21.83 7.92C22.0162 7.73264 22.1208 7.47919 22.1208 7.215C22.1208 6.95082 22.0162 6.69737 21.83 6.51C21.737 6.41628 21.6264 6.34188 21.5046 6.29111C21.3827 6.24034 21.252 6.2142 21.12 6.2142C20.988 6.2142 20.8573 6.24034 20.7354 6.29111C20.6136 6.34188 20.5029 6.41628 20.41 6.51L17.55 9.33C17.457 9.42373 17.3464 9.49813 17.2246 9.54889C17.1027 9.59966 16.972 9.6258 16.84 9.6258C16.708 9.6258 16.5773 9.59966 16.4554 9.54889C16.3336 9.49813 16.2229 9.42373 16.13 9.33L19.67 5.8C19.7632 5.70677 19.8372 5.59608 19.8876 5.47425C19.9381 5.35243 19.9641 5.22186 19.9641 5.09C19.9641 4.95814 19.9381 4.82758 19.8876 4.70575C19.8372 4.58393 19.7632 4.47324 19.67 4.38C19.5767 4.28677 19.4661 4.2128 19.3442 4.16234C19.2224 4.11188 19.0918 4.08591 18.96 4.08591C18.8281 4.08591 18.6976 4.11188 18.5757 4.16234C18.4539 4.2128 18.3432 4.28677 18.25 4.38L14.72 7.92C14.5337 7.73264 14.4292 7.47919 14.4292 7.215C14.4292 6.95082 14.5337 6.69737 14.72 6.51L17.55 3.68C17.6432 3.58677 17.7172 3.47607 17.7676 3.35425C17.8181 3.23243 17.8441 3.10186 17.8441 2.97C17.8441 2.83814 17.8181 2.70758 17.7676 2.58575C17.7172 2.46393 17.6432 2.35324 17.55 2.26C17.4567 2.16677 17.3461 2.0928 17.2242 2.04234C17.1024 1.99188 16.9718 1.96591 16.84 1.96591C16.7081 1.96591 16.5776 1.99188 16.4557 2.04234C16.3339 2.0928 16.2232 2.16677 16.13 2.26L13.3 5.09C12.7382 5.65251 12.4226 6.415 12.4226 7.21C12.4226 8.00501 12.7382 8.7675 13.3 9.33L12 10.62L3.72999 2.32L3.62999 2.26C3.57887 2.2154 3.52162 2.17836 3.45999 2.15L3.27999 2.08L3.15999 2H3.08999H2.88999C2.83037 1.99047 2.76961 1.99047 2.70999 2C2.64945 2.02204 2.59224 2.05232 2.53999 2.09L2.37999 2.19H2.30999L2.24999 2.29C2.20766 2.3428 2.17081 2.39976 2.13999 2.46C2.1107 2.52098 2.08726 2.5846 2.06999 2.65C2.06999 2.65 2.06999 2.72 2.06999 2.76C1.82732 4.45141 1.98204 6.1761 2.52186 7.79732C3.06169 9.41853 3.97179 10.8917 5.17999 12.1L7.81999 14.73L2.40999 20.13C2.31626 20.223 2.24186 20.3336 2.1911 20.4554C2.14033 20.5773 2.11419 20.708 2.11419 20.84C2.11419 20.972 2.14033 21.1027 2.1911 21.2246C2.24186 21.3464 2.31626 21.457 2.40999 21.55C2.50343 21.6427 2.61424 21.716 2.73608 21.7658C2.85792 21.8155 2.98838 21.8408 3.11999 21.84C3.25159 21.8408 3.38206 21.8155 3.50389 21.7658C3.62573 21.716 3.73655 21.6427 3.82999 21.55L9.89999 15.57L12.73 12.74L14.73 10.74C15.288 11.304 16.0466 11.624 16.84 11.63ZM9.18999 13.45L6.55999 10.81C5.11844 9.34874 4.21583 7.44127 3.99999 5.4L10.61 12L9.18999 13.45ZM15.43 14.02C15.2417 13.8304 14.9858 13.7233 14.7185 13.7224C14.4513 13.7214 14.1946 13.8267 14.005 14.015C13.8154 14.2033 13.7083 14.4592 13.7074 14.7265C13.7064 14.9937 13.8117 15.2504 14 15.44L20.3 21.74C20.491 21.9138 20.7418 22.007 21 22C21.1316 22.0008 21.2621 21.9755 21.3839 21.9258C21.5057 21.876 21.6165 21.8027 21.71 21.71C21.8037 21.617 21.8781 21.5064 21.9289 21.3846C21.9796 21.2627 22.0058 21.132 22.0058 21C22.0058 20.868 21.9796 20.7373 21.9289 20.6154C21.8781 20.4936 21.8037 20.383 21.71 20.29L15.43 14.02Z" fill="#5CB556"/>
</svg>
