<svg width="20" height="20" viewBox="0 0 20 20" fill="none" xmlns="http://www.w3.org/2000/svg">
<path d="M17.3916 14.375L15.1332 10.475C15.5954 9.62625 15.8361 8.67473 15.8332 7.70833C15.8332 6.16124 15.2186 4.67751 14.1247 3.58354C13.0307 2.48958 11.547 1.875 9.9999 1.875C8.4528 1.875 6.96907 2.48958 5.87511 3.58354C4.78115 4.67751 4.16656 6.16124 4.16656 7.70833C4.16369 8.67473 4.40444 9.62625 4.86656 10.475L2.60823 14.375C2.53495 14.5019 2.49644 14.6459 2.49658 14.7925C2.49673 14.9391 2.53552 15.083 2.60906 15.2098C2.68259 15.3366 2.78826 15.4417 2.9154 15.5146C3.04255 15.5875 3.18667 15.6256 3.33323 15.625H5.7249L6.94156 17.675C6.98258 17.7429 7.03309 17.8047 7.09156 17.8583C7.24605 18.0072 7.45201 18.0908 7.66656 18.0917H7.78323C7.90904 18.0744 8.02925 18.0287 8.13468 17.9579C8.24011 17.8872 8.32798 17.7932 8.39156 17.6833L9.9999 14.9167L11.6082 17.7083C11.6728 17.8167 11.761 17.909 11.8664 17.9783C11.9718 18.0476 12.0915 18.092 12.2166 18.1083H12.3332C12.5507 18.1096 12.76 18.0259 12.9166 17.875C12.9726 17.8244 13.0204 17.7654 13.0582 17.7L14.2749 15.65H16.6666C16.8134 15.6506 16.9578 15.6124 17.0851 15.5392C17.2124 15.466 17.3181 15.3605 17.3916 15.2333C17.4694 15.1037 17.5106 14.9554 17.5106 14.8042C17.5106 14.653 17.4694 14.5046 17.3916 14.375V14.375ZM7.65823 15.65L6.91656 14.4083C6.84353 14.2851 6.73999 14.1828 6.61592 14.1113C6.49184 14.0398 6.35143 14.0015 6.20823 14H4.76656L5.95823 11.9333C6.77884 12.7241 7.81308 13.2571 8.93323 13.4667L7.65823 15.65ZM9.9999 11.875C9.17581 11.875 8.37023 11.6306 7.68502 11.1728C6.99982 10.715 6.46576 10.0642 6.1504 9.30285C5.83503 8.54149 5.75252 7.70371 5.91329 6.89546C6.07406 6.0872 6.4709 5.34477 7.05362 4.76206C7.63634 4.17934 8.37877 3.7825 9.18702 3.62173C9.99528 3.46096 10.8331 3.54347 11.5944 3.85884C12.3558 4.1742 13.0065 4.70825 13.4644 5.39346C13.9222 6.07866 14.1666 6.88424 14.1666 7.70833C14.1666 8.8134 13.7276 9.87321 12.9462 10.6546C12.1648 11.436 11.105 11.875 9.9999 11.875V11.875ZM13.7916 14C13.6484 14.0015 13.508 14.0398 13.3839 14.1113C13.2598 14.1828 13.1563 14.2851 13.0832 14.4083L12.3416 15.65L11.0749 13.4417C12.1911 13.2278 13.2215 12.6953 14.0416 11.9083L15.2332 13.975L13.7916 14Z" fill="white"/>
</svg>
