<svg width="211" height="52" viewBox="0 0 211 52" fill="none" xmlns="http://www.w3.org/2000/svg">
<path d="M51.4747 4.43682L46.8117 6.88152L46.2231 7.19843C45.4082 7.78696 44.0048 9.28094 44.2312 12.9933V41.6052C44.2312 41.6052 44.2312 41.6052 44.2312 41.6958V42.1938C44.2312 43.3256 44.6386 45.725 47.038 44.7743C47.6719 44.4574 52.018 42.3296 52.6971 41.8769C54.2363 41.0167 54.8701 40.3829 54.8701 39.0247V6.88152C54.689 2.98812 51.4294 4.43682 51.4294 4.43682H51.4747Z" fill="url(#paint0_linear_2203_2325)"/>
<path d="M41.3788 12.9931C41.3788 11.318 40.0206 9.91455 38.3003 9.91455H5.97597C4.3009 9.91455 2.89746 11.2727 2.89746 12.9931V45.9059C2.89746 47.581 4.25563 48.9844 5.97597 48.9844H38.3003C38.7983 48.9844 39.2963 48.8486 39.7037 48.6222H39.7943C40.745 48.079 41.3788 47.0377 41.3788 45.9059V12.9931Z" fill="white"/>
<path d="M47.6263 2.08252H19.1048C17.8825 2.08252 16.6601 2.39942 15.5736 3.03323L9.64297 6.38337C9.32606 6.56446 9.46188 7.10773 9.82406 7.10773H39.2509C40.428 7.10773 41.6051 6.83609 42.6464 6.24755L47.9885 3.44068C48.6676 3.07851 48.3959 2.08252 47.6716 2.08252H47.6263Z" fill="url(#paint1_linear_2203_2325)"/>
<path d="M53.0137 0.0905446C52.8326 3.4405e-07 52.6062 0 52.3799 0H17.7919C16.6149 0 15.4378 0.316906 14.3965 0.950716L3.8934 7.24354L2.98796 7.87735C1.22235 8.91861 0 10.82 0 12.9931V45.9059C0 49.1655 2.62578 51.8366 5.93065 51.8366H38.255C39.1604 51.8366 39.9753 51.6102 40.7449 51.2933L40.9713 51.2028C40.9713 51.2028 41.0618 51.2028 41.1071 51.1575L54.4624 44.3214C56.3638 43.3707 57.6767 41.3787 57.6767 39.1151V5.79483C57.6767 2.98796 55.6395 0.63381 52.9684 0.0905446H53.0137ZM39.7942 48.577H39.7037C39.2962 48.8486 38.7982 48.9844 38.3002 48.9844H5.97592C4.30085 48.9844 2.89742 47.6263 2.89742 45.9059V12.9931C2.89742 11.318 4.25558 9.9146 5.97592 9.9146H38.3002C39.9753 9.9146 41.3787 11.2728 41.3787 12.9931V45.9059C41.3787 47.083 40.7449 48.079 39.7942 48.577ZM39.2057 7.06245H9.77878C9.37133 7.06245 9.23552 6.56446 9.59769 6.3381L15.5283 2.98796C16.6149 2.35415 17.8372 2.03725 19.0596 2.03725H47.581C48.3506 2.03725 48.577 3.03323 47.8979 3.39541L42.5558 6.20228C41.5145 6.74555 40.3375 7.06245 39.1604 7.06245H39.2057ZM54.8698 39.0246C54.8698 40.3827 54.236 41.0618 52.6968 41.8767C52.0177 42.3294 47.6716 44.4572 47.0378 44.7741C44.6383 45.6796 44.2761 43.3254 44.2309 42.1936V41.6956C44.2309 41.6504 44.2309 41.6051 44.2309 41.6051V12.9931C44.0045 9.28079 45.408 7.78681 46.2229 7.19827L46.8114 6.88136L51.4744 4.43667C51.4744 4.43667 54.734 2.98796 54.9151 6.88136V38.9793L54.8698 39.0246Z" fill="url(#paint2_linear_2203_2325)"/>
<path d="M30.9209 30.7397C30.106 30.7397 29.4269 31.3283 29.2911 32.0979C28.6572 35.267 25.7598 37.5758 22.2739 37.5758C18.7879 37.5758 16.0263 35.2217 15.302 32.0526C15.1209 31.283 14.4418 30.7397 13.6722 30.7397C12.9025 30.7397 11.816 31.7357 12.0424 32.777C13.0836 37.4853 17.2939 40.9713 22.2739 40.9713C27.2538 40.9713 31.6452 37.4853 32.5959 32.7317C32.8223 31.6905 32.0074 30.7397 30.9661 30.7397H30.9209Z" fill="url(#paint3_linear_2203_2325)"/>
<path d="M11.4993 25.1715C11.4993 25.9411 12.1331 26.5749 12.9027 26.5749C13.6723 26.5749 14.3061 25.9411 14.3061 25.1715V23.768H15.7096C16.4792 23.768 17.113 23.1342 17.113 22.3646C17.113 21.595 16.4792 20.9612 15.7096 20.9612H14.3061V19.5577C14.3061 18.7881 13.6723 18.1543 12.9027 18.1543C12.1331 18.1543 11.4993 18.7881 11.4993 19.5577V20.9612H10.0958C9.32619 20.9612 8.69238 21.595 8.69238 22.3646C8.69238 23.1342 9.32619 23.768 10.0958 23.768H11.4993V25.1715Z" fill="url(#paint4_linear_2203_2325)"/>
<path d="M34.226 20.9158H28.567C27.7974 20.9158 27.1636 21.5496 27.1636 22.3192C27.1636 23.0888 27.7974 23.7226 28.567 23.7226H34.226C34.9957 23.7226 35.6295 23.0888 35.6295 22.3192C35.6295 21.5496 34.9957 20.9158 34.226 20.9158Z" fill="url(#paint5_linear_2203_2325)"/>
<path d="M7.01699 43.9592C6.29264 43.9592 5.7041 44.5478 5.7041 45.2721C5.7041 45.9965 6.29264 46.585 7.01699 46.585C7.74135 46.585 8.32989 45.9965 8.32989 45.2721C8.32989 44.5478 7.74135 43.9592 7.01699 43.9592Z" fill="url(#paint6_linear_2203_2325)"/>
<path d="M7.01699 39.2058C6.29264 39.2058 5.7041 39.7944 5.7041 40.5187C5.7041 41.2431 6.29264 41.8316 7.01699 41.8316C7.74135 41.8316 8.32989 41.2431 8.32989 40.5187C8.32989 39.7944 7.74135 39.2058 7.01699 39.2058Z" fill="url(#paint7_linear_2203_2325)"/>
<path d="M11.7255 43.1897C11.0011 43.1897 10.4126 43.7782 10.4126 44.5026C10.4126 45.2269 11.0011 45.8155 11.7255 45.8155C12.4498 45.8155 13.0384 45.2269 13.0384 44.5026C13.0384 43.7782 12.4498 43.1897 11.7255 43.1897Z" fill="url(#paint8_linear_2203_2325)"/>
<path d="M52.1537 7.06226C51.4294 7.06226 50.8408 7.65079 50.8408 8.37515C50.8408 9.0995 51.4294 9.68804 52.1537 9.68804C52.8781 9.68804 53.4666 9.0995 53.4666 8.37515C53.4666 7.65079 52.8781 7.06226 52.1537 7.06226Z" fill="url(#paint9_linear_2203_2325)"/>
<path d="M51.746 11.8159C51.0216 11.8159 50.4331 12.4045 50.4331 13.1288C50.4331 13.8532 51.0216 14.4417 51.746 14.4417C52.4703 14.4417 53.0589 13.8532 53.0589 13.1288C53.0589 12.4045 52.4703 11.8159 51.746 11.8159Z" fill="url(#paint10_linear_2203_2325)"/>
<path d="M47.8075 9.4165C47.0832 9.4165 46.4946 10.005 46.4946 10.7294C46.4946 11.4538 47.0832 12.0423 47.8075 12.0423C48.5319 12.0423 49.1204 11.4538 49.1204 10.7294C49.1204 10.005 48.5319 9.4165 47.8075 9.4165Z" fill="url(#paint11_linear_2203_2325)"/>
<path d="M92.5354 17.8278V36.3803C92.5354 42.1955 87.8241 46.9471 82.0089 46.9471C78.9387 46.9471 76.0298 45.6363 74.0233 43.3022C73.1638 42.2385 73.2444 40.6403 74.3107 39.7808C75.3341 38.838 76.9323 38.9615 77.8321 40.0279C78.8555 41.2554 80.4134 41.9108 82.0089 41.9108C85.0817 41.9108 87.5367 39.4531 87.5367 36.3829V34.5806C86.0218 35.4804 84.2195 36.015 82.3366 36.015C76.6852 36.015 72.0571 31.4272 72.0571 25.7758C72.0571 20.1244 76.6852 15.5367 82.3366 15.5367C84.2624 15.5367 86.1051 16.0685 87.6603 17.0516C88.0283 16.0685 88.9308 15.3325 90.0347 15.3325C91.4288 15.3325 92.5327 16.4795 92.5327 17.8305L92.5354 17.8278ZM87.5394 25.7731C87.5394 22.8642 85.2052 20.53 82.3393 20.53C79.4733 20.53 77.0961 22.8642 77.0961 25.7731C77.0961 28.6821 79.4303 31.0163 82.3393 31.0163C85.2482 31.0163 87.5394 28.6418 87.5394 25.7731Z" fill="#3D00D6"/>
<path d="M103.728 33.5955C103.728 34.9868 102.622 36.0935 101.23 36.0935C99.5113 36.0935 97.8325 35.234 96.7662 33.8829C95.5387 32.2847 95.6192 30.4851 95.6192 28.5592V7.46846C95.6192 6.11739 96.7259 5.01074 98.077 5.01074C99.428 5.01074 100.575 6.11739 100.575 7.46846V29.7061C100.575 29.8297 100.535 29.9532 100.535 30.0741C100.535 30.195 100.575 30.3185 100.575 30.4421C100.575 30.8101 100.862 31.1378 101.23 31.1378C102.622 31.1378 103.728 32.2444 103.728 33.5955Z" fill="#3D00D6"/>
<path d="M141.01 35.9697C138.308 35.9697 135.81 34.9463 133.884 33.1037C131.918 31.1778 130.812 28.6395 130.731 25.8971C130.691 23.1949 131.674 20.5734 133.64 18.6072C135.523 16.641 138.064 15.537 140.806 15.4538C143.551 15.4135 146.13 16.4369 148.096 18.3628C149.079 19.2626 149.119 20.8608 148.177 21.8036C147.234 22.7866 145.679 22.8269 144.696 21.8841C143.672 20.9011 142.321 20.3692 140.887 20.3692C139.452 20.3692 138.144 20.9843 137.118 22.0077C136.176 23.0311 135.603 24.3821 135.644 25.8165C135.644 27.2079 136.259 28.6019 137.282 29.542C138.306 30.5654 139.657 31.0972 141.051 31.0569C142.402 31.0569 143.672 30.5251 144.655 29.6226C145.598 28.6798 147.194 28.7631 148.096 29.7462C149.039 30.7292 148.956 32.2845 147.973 33.2272C146.13 34.9463 143.713 35.9294 141.174 35.9724H141.01V35.9697Z" fill="#3D00D6"/>
<path d="M162.2 36.0125C156.549 36.0125 151.921 31.4248 151.921 25.7331C151.921 20.0414 156.549 15.4536 162.2 15.4536C167.851 15.4536 172.48 20.0816 172.52 25.7733C172.48 31.4248 167.851 36.0125 162.2 36.0125ZM162.2 20.4899C159.291 20.4899 156.957 22.8241 156.957 25.7331C156.957 28.642 159.291 30.9762 162.2 30.9762C165.109 30.9762 167.443 28.642 167.443 25.7331C167.443 22.8241 165.109 20.4899 162.2 20.4899Z" fill="#3D00D6"/>
<path d="M189.077 10.1245C188.341 11.0673 186.702 11.4352 185.596 10.616C185.064 10.2077 184.408 10.0009 183.713 10.0009C181.994 10.0009 180.559 11.3923 180.559 13.114C180.559 13.3181 180.559 13.5223 180.519 13.6888C180.559 13.893 180.559 14.0971 180.559 14.3039V18.2363H184.449C185.843 18.2363 186.947 19.3429 186.947 20.7343C186.947 22.1256 185.84 23.2323 184.449 23.2323H180.559V33.5923C180.559 34.9837 179.453 36.0903 178.102 36.0903C176.75 36.0903 175.604 34.9837 175.604 33.5923V13.114C175.604 8.64983 179.248 5.00488 183.713 5.00488C185.515 5.00488 187.194 5.57701 188.585 6.64336C189.692 7.4626 189.772 9.22464 189.077 10.1245ZM194.975 13.3584V13.482C194.975 14.8734 193.869 15.98 192.517 15.98C191.166 15.98 190.019 14.8734 190.019 13.482V13.3584C190.019 11.9671 191.126 10.8604 192.517 10.8604C193.909 10.8604 194.975 11.9671 194.975 13.3584ZM194.975 20.7289V33.5869C194.975 34.9783 193.869 36.0849 192.517 36.0849C191.166 36.0849 190.019 34.9783 190.019 33.5869V20.7289C190.019 19.3778 191.126 18.2712 192.517 18.2712C193.909 18.2712 194.975 19.3778 194.975 20.7289Z" fill="#3D00D6"/>
<path d="M210.793 33.5147C210.793 34.906 209.687 35.9724 208.336 35.9724C207.968 35.9724 207.64 35.9724 207.272 35.9321C205.921 35.728 204.61 35.1532 203.667 34.0895C202.848 33.1467 202.276 31.6721 202.276 30.4043V20.0845H200.517C199.165 20.0845 198.059 18.9779 198.059 17.6268C198.059 16.2757 199.165 15.1691 200.517 15.1691H202.276V7.34737C202.276 5.99629 203.383 4.88965 204.734 4.88965C206.085 4.88965 207.191 5.99629 207.191 7.34737V15.1691H208.542C209.893 15.1691 211 16.2757 211 17.6268C211 18.9779 209.893 20.0845 208.542 20.0845H207.191V29.8321C207.275 30.1598 207.191 30.6514 207.479 30.8958C207.683 31.0999 208.051 31.0596 208.338 31.0596C209.689 31.0596 210.796 32.1663 210.796 33.5174L210.793 33.5147Z" fill="#3D00D6"/>
<path d="M116.949 36.0125C111.477 36.0125 106.973 31.2555 106.973 25.4456V17.9785C106.973 16.5898 108.026 15.4536 109.331 15.4536C110.637 15.4536 111.982 16.5898 111.982 17.9785V25.4456C111.982 28.4755 114.507 30.9171 116.949 30.9171C119.812 30.9171 122.641 28.4755 122.641 25.4456V18.0107C122.641 16.5791 124.115 15.4858 125.251 15.4858C126.557 15.4858 127.65 16.5791 127.65 18.0107V25.4456C127.65 31.2555 122.463 36.0125 116.949 36.0125Z" fill="#3D00D6"/>
<defs>
<linearGradient id="paint0_linear_2203_2325" x1="46.0873" y1="63.2453" x2="54.689" y2="-2.17291" gradientUnits="userSpaceOnUse">
<stop stop-color="#EBE3FF"/>
<stop offset="1" stop-color="#BAABFF"/>
</linearGradient>
<linearGradient id="paint1_linear_2203_2325" x1="19.8292" y1="19.5576" x2="51.2933" y2="-2.85216" gradientUnits="userSpaceOnUse">
<stop stop-color="#E2D6FF"/>
<stop offset="1" stop-color="#E0D9FF"/>
</linearGradient>
<linearGradient id="paint2_linear_2203_2325" x1="21.8664" y1="-8.10371" x2="37.1232" y2="65.6899" gradientUnits="userSpaceOnUse">
<stop stop-color="#4800FF"/>
<stop offset="1" stop-color="#3100AD"/>
</linearGradient>
<linearGradient id="paint3_linear_2203_2325" x1="13.4005" y1="-5.61379" x2="24.4922" y2="42.1031" gradientUnits="userSpaceOnUse">
<stop stop-color="#4800FF"/>
<stop offset="1" stop-color="#3100AD"/>
</linearGradient>
<linearGradient id="paint4_linear_2203_2325" x1="6.79095" y1="-4.07432" x2="17.8826" y2="43.6425" gradientUnits="userSpaceOnUse">
<stop stop-color="#4800FF"/>
<stop offset="1" stop-color="#3100AD"/>
</linearGradient>
<linearGradient id="paint5_linear_2203_2325" x1="24.3114" y1="-8.14893" x2="35.4031" y2="39.5679" gradientUnits="userSpaceOnUse">
<stop stop-color="#4800FF"/>
<stop offset="1" stop-color="#3100AD"/>
</linearGradient>
<linearGradient id="paint6_linear_2203_2325" x1="-3.84832" y1="-1.58457" x2="7.24337" y2="46.1323" gradientUnits="userSpaceOnUse">
<stop stop-color="#4800FF"/>
<stop offset="1" stop-color="#3100AD"/>
</linearGradient>
<linearGradient id="paint7_linear_2203_2325" x1="-2.80706" y1="-1.81077" x2="8.28463" y2="45.8608" gradientUnits="userSpaceOnUse">
<stop stop-color="#4800FF"/>
<stop offset="1" stop-color="#3100AD"/>
</linearGradient>
<linearGradient id="paint8_linear_2203_2325" x1="0.724354" y1="-2.67101" x2="11.816" y2="45.0459" gradientUnits="userSpaceOnUse">
<stop stop-color="#4800FF"/>
<stop offset="1" stop-color="#3100AD"/>
</linearGradient>
<linearGradient id="paint9_linear_2203_2325" x1="47.0832" y1="-13.4007" x2="58.1749" y2="34.2708" gradientUnits="userSpaceOnUse">
<stop stop-color="#4800FF"/>
<stop offset="1" stop-color="#3100AD"/>
</linearGradient>
<linearGradient id="paint10_linear_2203_2325" x1="45.6795" y1="-13.0837" x2="56.7712" y2="34.5878" gradientUnits="userSpaceOnUse">
<stop stop-color="#4800FF"/>
<stop offset="1" stop-color="#3100AD"/>
</linearGradient>
<linearGradient id="paint11_linear_2203_2325" x1="42.4201" y1="-12.3594" x2="53.5118" y2="35.3575" gradientUnits="userSpaceOnUse">
<stop stop-color="#4800FF"/>
<stop offset="1" stop-color="#3100AD"/>
</linearGradient>
</defs>
</svg>
