<svg width="24" height="24" viewBox="0 0 24 24" fill="none" xmlns="http://www.w3.org/2000/svg">
<path d="M19.4999 4.5C18.5398 3.54006 17.2377 3.00078 15.8799 3.00078C14.5222 3.00078 13.2201 3.54006 12.2599 4.5L4.49994 12.26C4.01308 12.7328 3.62509 13.2977 3.35852 13.9218C3.09195 14.546 2.95212 15.2169 2.94716 15.8955C2.9422 16.5741 3.07221 17.247 3.32963 17.875C3.58705 18.5029 3.96675 19.0734 4.44663 19.5533C4.92652 20.0332 5.49703 20.4129 6.12498 20.6703C6.75293 20.9277 7.42579 21.0577 8.10444 21.0528C8.78309 21.0478 9.45398 20.908 10.0781 20.6414C10.7022 20.3749 11.2671 19.9869 11.7399 19.5L19.4999 11.74C20.4599 10.7799 20.9992 9.47772 20.9992 8.12C20.9992 6.76229 20.4599 5.46016 19.4999 4.5ZM10.3199 18.09C9.72397 18.6533 8.935 18.9672 8.11494 18.9672C7.29487 18.9672 6.50591 18.6533 5.90994 18.09C5.32797 17.5037 5.00139 16.7111 5.00139 15.885C5.00139 15.0589 5.32797 14.2663 5.90994 13.68L9.08994 10.5L13.4999 14.91L10.3199 18.09ZM18.0899 10.32L14.9099 13.5L10.4999 9.09L13.6799 5.91C14.271 5.35632 15.0541 5.05415 15.8639 5.06736C16.6736 5.08056 17.4465 5.40811 18.0192 5.98077C18.5918 6.55343 18.9194 7.32632 18.9326 8.13607C18.9458 8.94582 18.6436 9.72898 18.0899 10.32Z" fill="#5CB556"/>
</svg>
